<svg xmlns="http://www.w3.org/2000/svg" viewBox="0 0 32 32" fill="none">
  <rect width="32" height="32" rx="8" fill="#2E7D32"/>
  <path d="M16 6C11.5817 6 8 9.58172 8 14C8 18.4183 16 26 16 26C16 26 24 18.4183 24 14C24 9.58172 20.4183 6 16 6ZM16 16C14.8954 16 14 15.1046 14 14C14 12.8954 14.8954 12 16 12C17.1046 12 18 12.8954 18 14C18 15.1046 17.1046 16 16 16Z" fill="#FF9933"/>
  <path d="M16 8C13 8 11 10 11 13C11 16 16 21 16 21C16 21 21 16 21 13C21 10 19 8 16 8Z" fill="white" opacity="0.3"/>
</svg>
